<svg xmlns="http://www.w3.org/2000/svg" version="1.1" viewBox="0 0 2048 2048" width="60" height="60" style="fill: #3c4981;">
<path transform="translate(315,274)" d="m0 0h407l18 1 18 3 21 6 16 7 17 9 15 11 13 11 66 66 6 5 6 7 2 1v2l4 2 10 9 13 8 15 7 18 5 17 2 528 1 21 3 21 6 19 8 15 8 14 10 11 9 18 18 13 18 11 20 6 15 6 20 3 17 1 13v123l10-1 49 1 20 3 19 5 19 8 18 10 14 10 11 9 14 14 10 13 10 16 8 15 7 18 5 19 3 24v20l-2 20-5 21-17 55-21 67-25 80-22 70-14 45-11 36-10 31-10 33-10 31-40 128-10 24-9 15-15 21h-2l-2 4-10 10h-2v2l-10 8-15 10-14 8-20 8-18 5-16 3-26 2h-1218l-20-1-25-4-20-6-20-9-18-11-14-11-10-9-8-8-11-14-10-15-8-15-8-21-4-14-3-20-1-12v-1032l2-22 5-22 7-20 12-23 12-17 10-11 1-2h2l2-4 8-7 17-13 19-11 16-7 15-5 19-4zm0 65-16 2-15 4-16 8-10 6-15 13-11 13-10 18-6 15-4 22v790l2-2 12-38 15-48 21-67 25-80 18-57 16-52 10-31 8-23 8-16 7-12 10-14 10-11v-2h2v-2h2v-2l4-2 10-9 10-7 13-8 16-8 19-7 24-5 8-1 1137-1v-125l-3-17-6-17-8-15-10-13-10-10-14-10-15-8-18-6-12-2-197-1h-322l-20-1-25-4-17-5-21-9-17-10-12-9-10-9-8-7-77-77-14-11-13-8-17-7-17-4-8-1zm346 450-176 1-15 3-15 5-18 10-14 12-7 7-8 11-8 14-7 19-21 67-15 48-16 51-20 64-16 51-14 45-20 64-21 67-20 64-15 49-3 16v25l4 19 6 15 8 15 13 16 10 9 10 7 14 8 17 6 16 3 10 1h1225l16-1 19-4 19-8 14-9 11-9 10-11 9-14 8-17 15-48 12-39 9-28 11-36 9-28 11-36 9-28 10-32 17-55 10-31 9-29 20-64 16-52 10-31 12-39 4-19 1-18-2-17-6-20-10-19-10-13-11-11-16-11-14-7-16-5-12-2-252-1z"/>
</svg>