<svg xmlns="http://www.w3.org/2000/svg" version="1.1" viewBox="0 0 2048 2048" width="60" height="60" style="&#10;    fill: #6779ca;&#10;">
<path transform="translate(690,725)" d="m0 0h1242l19 3 21 7 18 10 12 9 12 11 12 15 9 15 8 21 3 12h2v48h-2l-2 12-17 59-14 48-16 55-12 41-16 55-12 41-16 55-12 41-16 55-12 41-16 55-12 41-16 55-12 41-16 55-12 41-9 29-9 21-9 17-7 11-10 13-11 12-5 6-8 7-16 13-16 10-23 12-22 8-26 6-15 2-13 1h-1123l-387 1-19-1 3-2 24-2 24-5 21-7 20-9 19-11 16-12 15-13 8-8 8-10 10-13 11-19 7-14 7-18 14-47 25-86 19-65 21-72 23-79 21-72 12-41 23-79 21-72 12-41 39-134 13-44 6-17 7-16 12-20 10-13 2-3h2l2-4 17-17 13-10 15-10 17-9 21-8 25-6z"/>
<path transform="translate(155,213)" d="m0 0h518l23 3 21 5 19 7 16 7 22 13 12 9 11 9 8 7v2l3 1 7 8 9 10 11 14 9 11 14 17 11 14 11 13 11 14 11 13 9 11 11 9 14 8 15 5 14 2 661 1 17 1 22 4 18 6 16 7 20 12 16 13 9 8 7 8 11 14 8 13 8 15 8 22 4 17 2 18 1 54-1 2-1082 1-26 1-24 3-27 6-24 8-18 8-16 8-20 12-13 10-9 7-14 12-13 13-7 8-14 18-13 20-12 23-10 24-11 35-9 31-16 55-12 41-23 79-14 48-16 55-36 123-16 55-17 58-25 86-22 75-25 86-8 24-8 16-7 11-13 15-12 10-16 10-18 8-19 5-15 2h-13l-17-3-15-6-12-7-13-12-10-13-8-16-4-11v-1324l9-32 9-21 11-18 10-13 14-15 10-9 17-12 16-9 20-8 19-5z"/>
</svg>