<svg xmlns="http://www.w3.org/2000/svg" version="1.1" viewBox="0 0 2048 2048" width="50" height="50">
<path transform="translate(245)" d="m0 0h1563l4 2 32 7 27 9 20 9 21 11 15 10 16 12 13 11 12 11 14 15 13 17 14 21 12 22 11 26 8 26 6 27 2 2v1570h-2l-5 26-7 25-10 25-12 24-13 20-12 16-12 14-5 6h-2v2h-2v2l-8 7-10 9-17 13-22 14-25 13-26 10-25 7-32 7h-1552l-35-7-24-7-24-9-24-12-19-12-14-10-13-11-13-12-12-12-9-11-11-14-10-15-12-21-8-17-9-25-5-18-7-32v-1559l4-18 6-25 7-21 10-23 11-21 8-12 12-17 12-14 9-10 12-12 11-9 17-13 17-11 23-12 15-7 20-7 26-7zm310 384-19 2-19 4-21 7-16 8-12 7-11 8-13 11-13 13-10 13-10 16-8 16-7 19-5 21-2 17v26l3 21 5 19 6 16 8 16 6 10 10 14 14 15 12 11 14 10 16 9 12 6 17 6 21 5 15 2h30l21-3 21-6 19-8 15-8 17-12 11-10 7-6 7-8 10-13 11-18 7-15 7-21 5-25 1-26-2-21-5-23-8-22-11-21-12-17-12-13-10-10-16-12-17-10-17-8-22-7-15-3-20-2zm760 410-33 3-29 5-27 7-22 8-16 7-21 12-17 12-13 11-8 7v2l-4 2-7 8-10 11-14 19-4 4v-68l-2-11-6-12-9-8-10-5-4-1h-207l-9 3-8 5-7 7-6 12-1 4-1 17v760l1 16 3 10 6 9 8 7 8 4 8 2h202l10-3 10-6 8-9 4-9 1-6 1-425 4-29 5-23 6-20 6-16 8-17 11-18 4-5v-2h2l8-10 8-8 15-11 14-8 19-7 13-3 17-2h20l20 2 17 4 16 6 16 9 10 8 10 9 10 13 8 13 7 15 8 24 5 23 4 31 1 15 1 432 3 10 5 8 5 5 8 6 9 3 6 1h203l11-2 8-4 10-9 5-8 3-11v-418l-1-47-3-49-5-43-6-34-9-36-10-30-10-24-11-22-12-19-10-14-18-21h-2l-2-4-8-7-13-11-16-11-15-9-22-11-24-9-25-7-27-5-25-3-15-1zm-828 12-25 1-11 4-11 8-7 10-4 11-1 9v774l3 14 6 10 4 5 11 7 13 4h196l13-4 9-6 9-10 4-10 1-5v-787l-4-12-6-8-7-7-10-5-7-2-59-1z" style="&#10;    fill: #e34964;&#10;"/>
<path transform="translate(241,2047)" d="m0 0 3 1z"/>
</svg>